# xmcd
#
# Track frame offsets:
#	150
#	19987
#	40412
#	63727
#	83987
#	107792
#	127687
#	146370
#	163850
#	186920
#
# Disc length: 2767 seconds
#
# Revision: 1
# Processed by: cddbd v1.5PL3 Copyright (c) Steve Scherf et al.
# Submitted via: CDex 1.50Beta5
#
DISCID=8a0acd0a
DTITLE=水沢瑶子 - Dear Friend
DYEAR=1994
DGENRE=New Age
TTITLE0=プライド
TTITLE1=薔薇の神話
TTITLE2=心癒えるまで
TTITLE3=瞳 Mystery
TTITLE4=そばにいさせて
TTITLE5=さよならの引き金
TTITLE6=悲しきバイ・プレイヤー
TTITLE7=逃避行
TTITLE8=赤い靴
TTITLE9=遅すぎただけ
EXTD=
EXTT0=
EXTT1=
EXTT2=
EXTT3=
EXTT4=
EXTT5=
EXTT6=
EXTT7=
EXTT8=
EXTT9=
PLAYORDER=
